<svg width="18" height="18" viewBox="0 0 18 18" fill="none" xmlns="http://www.w3.org/2000/svg">
<path d="M6.9175 12.835C5.26363 12.835 3.86407 12.2621 2.71881 11.1162C1.57354 9.97032 1.00061 8.57075 1 6.9175C0.999394 5.26424 1.57233 3.86467 2.71881 2.71881C3.86528 1.57294 5.26485 1 6.9175 1C8.57015 1 9.97001 1.57294 11.1171 2.71881C12.2642 3.86467 12.8368 5.26424 12.835 6.9175C12.835 7.58511 12.7288 8.21479 12.5164 8.80654C12.3039 9.39829 12.0156 9.92176 11.6515 10.377L16.7496 15.4751C16.9165 15.642 17 15.8544 17 16.1124C17 16.3703 16.9165 16.5827 16.7496 16.7496C16.5827 16.9165 16.3703 17 16.1124 17C15.8544 17 15.642 16.9165 15.4751 16.7496L10.377 11.6515C9.92176 12.0156 9.39829 12.3039 8.80654 12.5164C8.21479 12.7288 7.58511 12.835 6.9175 12.835ZM6.9175 11.0142C8.05548 11.0142 9.02291 10.6161 9.8198 9.8198C10.6167 9.02352 11.0148 8.05608 11.0142 6.9175C11.0136 5.77891 10.6155 4.81178 9.8198 4.0161C9.02413 3.22043 8.05669 2.82198 6.9175 2.82077C5.7783 2.81955 4.81117 3.218 4.0161 4.0161C3.22103 4.81421 2.82259 5.78134 2.82077 6.9175C2.81895 8.05366 3.21739 9.02109 4.0161 9.8198C4.81481 10.6185 5.78194 11.0167 6.9175 11.0142Z" fill="#94A3B8"/>
</svg>
